STARTFONT 2.1
COMMENT
COMMENT Converted from OpenType font "Q:\font stuff\winfont\EUROCAPS.TTF" by "otf2bdf 3.0".
COMMENT
FONT -FreeType-Euro Caps-Medium-R-Normal--24-240-72-72-P-107-ISO10646-1
SIZE 24 72 72
FONTBOUNDINGBOX 32 26 -2 -6
STARTPROPERTIES 19
FOUNDRY "FreeType"
FAMILY_NAME "Euro Caps"
WEIGHT_NAME "Medium"
SLANT "R"
SETWIDTH_NAME "Normal"
ADD_STYLE_NAME ""
PIXEL_SIZE 24
POINT_SIZE 240
RESOLUTION_X 72
RESOLUTION_Y 72
SPACING "P"
AVERAGE_WIDTH 107
CHARSET_REGISTRY "ISO10646"
CHARSET_ENCODING "1"
FONT_ASCENT 21
FONT_DESCENT 7
COPYRIGHT "©2010"
_OTF_FONTFILE "Q:\font stuff\winfont\EUROCAPS.TTF"
_OTF_PSNAME "EuroCaps"
ENDPROPERTIES
CHARS 259
STARTCHAR 0020
ENCODING 32
SWIDTH 291 0
DWIDTH 7 0
BBX 0 0 0 0
BITMAP
ENDCHAR
STARTCHAR 0021
ENCODING 33
SWIDTH 250 0
DWIDTH 6 0
BBX 2 16 2 0
BITMAP
C0
C0
C0
C0
C0
C0
C0
C0
C0
C0
C0
00
00
C0
C0
C0
ENDCHAR
STARTCHAR 0022
ENCODING 34
SWIDTH 333 0
DWIDTH 8 0
BBX 6 6 1 10
BITMAP
CC
C8
C8
C8
C8
C8
ENDCHAR
STARTCHAR 0023
ENCODING 35
SWIDTH 500 0
DWIDTH 12 0
BBX 10 14 1 0
BITMAP
1980
1980
1180
1100
7FC0
1100
3100
3300
3300
FFC0
2200
2200
2200
6600
ENDCHAR
STARTCHAR 0024
ENCODING 36
SWIDTH 583 0
DWIDTH 14 0
BBX 12 17 1 -2
BITMAP
0600
3FC0
7FF0
C630
C630
C600
E600
7FE0
0670
0630
C630
C630
C670
FFF0
7FE0
0600
0600
ENDCHAR
STARTCHAR 0025
ENCODING 37
SWIDTH 875 0
DWIDTH 21 0
BBX 19 14 1 0
BITMAP
7E0C00
C30800
C31800
C31000
C33000
C32FC0
C37860
7E5860
00D860
019860
011860
031860
021860
060FC0
ENDCHAR
STARTCHAR 0026
ENCODING 38
SWIDTH 625 0
DWIDTH 15 0
BBX 13 14 1 -1
BITMAP
1F80
3FC0
30C0
30C0
30C0
3800
3C00
FE00
C3B0
C1F0
C0F0
C070
7FF8
3FC8
ENDCHAR
STARTCHAR 0027
ENCODING 39
SWIDTH 166 0
DWIDTH 4 0
BBX 2 6 1 10
BITMAP
C0
C0
C0
C0
C0
C0
ENDCHAR
STARTCHAR 0028
ENCODING 40
SWIDTH 333 0
DWIDTH 8 0
BBX 5 22 2 -5
BITMAP
38
78
E0
C0
C0
C0
C0
C0
C0
C0
C0
C0
C0
C0
C0
C0
C0
C0
C0
C0
70
38
ENDCHAR
STARTCHAR 0029
ENCODING 41
SWIDTH 333 0
DWIDTH 8 0
BBX 5 22 1 -5
BITMAP
E0
F0
38
18
18
18
18
18
18
18
18
18
18
18
18
18
18
18
18
18
F0
E0
ENDCHAR
STARTCHAR 002A
ENCODING 42
SWIDTH 500 0
DWIDTH 12 0
BBX 9 9 1 6
BITMAP
0800
0800
8880
FF80
3E00
1C00
3400
2200
6200
ENDCHAR
STARTCHAR 002B
ENCODING 43
SWIDTH 541 0
DWIDTH 13 0
BBX 11 11 1 1
BITMAP
0600
0600
0600
0600
0600
FFE0
FFE0
0600
0600
0600
0600
ENDCHAR
STARTCHAR 002C
ENCODING 44
SWIDTH 208 0
DWIDTH 5 0
BBX 3 6 1 -3
BITMAP
60
60
60
20
60
C0
ENDCHAR
STARTCHAR 002D
ENCODING 45
SWIDTH 250 0
DWIDTH 6 0
BBX 6 2 0 6
BITMAP
FC
FC
ENDCHAR
STARTCHAR 002E
ENCODING 46
SWIDTH 208 0
DWIDTH 5 0
BBX 2 3 1 0
BITMAP
C0
C0
C0
ENDCHAR
STARTCHAR 002F
ENCODING 47
SWIDTH 583 0
DWIDTH 14 0
BBX 13 18 1 -2
BITMAP
0018
0030
0020
0060
00C0
0080
0180
0300
0200
0600
0C00
0800
1000
3000
2000
4000
C000
8000
ENDCHAR
STARTCHAR 0030
ENCODING 48
SWIDTH 583 0
DWIDTH 14 0
BBX 11 14 1 0
BITMAP
3F80
7FC0
E0E0
C060
C060
C060
C060
C060
C060
C060
C060
E0E0
7FC0
3F80
ENDCHAR
STARTCHAR 0031
ENCODING 49
SWIDTH 541 0
DWIDTH 13 0
BBX 6 14 4 0
BITMAP
1C
3C
7C
EC
CC
0C
0C
0C
0C
0C
0C
0C
0C
0C
ENDCHAR
STARTCHAR 0032
ENCODING 50
SWIDTH 541 0
DWIDTH 13 0
BBX 10 14 1 0
BITMAP
3F00
FFC0
C0C0
C0C0
C0C0
00C0
00C0
1F80
7C00
C000
C000
C000
FFC0
FFC0
ENDCHAR
STARTCHAR 0033
ENCODING 51
SWIDTH 541 0
DWIDTH 13 0
BBX 11 14 1 0
BITMAP
3F80
FFC0
C0C0
C0C0
C0C0
00C0
0F80
0FC0
0060
C060
C060
C060
FFE0
3F80
ENDCHAR
STARTCHAR 0034
ENCODING 52
SWIDTH 541 0
DWIDTH 13 0
BBX 11 14 1 0
BITMAP
0380
0780
0D80
0D80
1980
3180
2180
6180
C180
FFE0
FFE0
0180
0180
0180
ENDCHAR
STARTCHAR 0035
ENCODING 53
SWIDTH 541 0
DWIDTH 13 0
BBX 11 14 1 0
BITMAP
7FC0
7FC0
6000
6000
6F80
7FC0
60E0
0060
0060
0060
C060
C0E0
FFC0
3F80
ENDCHAR
STARTCHAR 0036
ENCODING 54
SWIDTH 541 0
DWIDTH 13 0
BBX 10 14 1 0
BITMAP
3F80
7FC0
C0C0
C0C0
C000
DF80
FFC0
C0C0
C0C0
C0C0
C0C0
C0C0
7F80
3F80
ENDCHAR
STARTCHAR 0037
ENCODING 55
SWIDTH 541 0
DWIDTH 13 0
BBX 10 14 1 0
BITMAP
FFC0
FFC0
00C0
0180
0180
0300
0300
0600
0600
0C00
1C00
1800
3000
3000
ENDCHAR
STARTCHAR 0038
ENCODING 56
SWIDTH 541 0
DWIDTH 13 0
BBX 11 14 1 0
BITMAP
3FC0
FFE0
C060
C060
C060
C060
3F80
7FC0
C060
C060
C060
C060
FFE0
3F80
ENDCHAR
STARTCHAR 0039
ENCODING 57
SWIDTH 541 0
DWIDTH 13 0
BBX 11 14 1 0
BITMAP
3F80
FFC0
C060
C060
C060
C060
FFE0
3FE0
0060
0060
C060
C0E0
FFC0
7F80
ENDCHAR
STARTCHAR 003A
ENCODING 58
SWIDTH 208 0
DWIDTH 5 0
BBX 2 13 1 0
BITMAP
C0
C0
C0
00
00
00
00
00
00
00
C0
C0
C0
ENDCHAR
STARTCHAR 003B
ENCODING 59
SWIDTH 208 0
DWIDTH 5 0
BBX 3 16 1 -3
BITMAP
60
60
60
00
00
00
00
00
00
00
60
60
60
20
60
C0
ENDCHAR
STARTCHAR 003C
ENCODING 60
SWIDTH 500 0
DWIDTH 12 0
BBX 10 11 1 1
BITMAP
00C0
03C0
0F00
3C00
F000
C000
7800
1E00
0780
01C0
0040
ENDCHAR
STARTCHAR 003D
ENCODING 61
SWIDTH 541 0
DWIDTH 13 0
BBX 11 5 1 4
BITMAP
FFE0
FFE0
0000
FFE0
FFE0
ENDCHAR
STARTCHAR 003E
ENCODING 62
SWIDTH 500 0
DWIDTH 12 0
BBX 10 11 1 1
BITMAP
C000
F000
3C00
0F00
03C0
00C0
0780
1E00
7800
E000
8000
ENDCHAR
STARTCHAR 003F
ENCODING 63
SWIDTH 458 0
DWIDTH 11 0
BBX 9 16 1 0
BITMAP
7F00
FF80
C180
C180
0180
0180
0780
1E00
1800
1800
1800
0000
0000
1800
1800
1800
ENDCHAR
STARTCHAR 0040
ENCODING 64
SWIDTH 750 0
DWIDTH 18 0
BBX 15 16 2 0
BITMAP
1FF8
600C
4004
8FA2
9862
9022
9022
9022
9022
9022
9022
8866
8F9C
4000
6018
1FF0
ENDCHAR
STARTCHAR 0041
ENCODING 65
SWIDTH 541 0
DWIDTH 13 0
BBX 13 14 0 0
BITMAP
0700
0700
0D80
0D80
0CC0
18C0
18C0
1060
3060
3FE0
3FF0
6030
6018
C018
ENDCHAR
STARTCHAR 0042
ENCODING 66
SWIDTH 541 0
DWIDTH 13 0
BBX 10 14 2 0
BITMAP
FF80
FFC0
C0C0
C0C0
C0C0
C0C0
FF80
FF80
C0C0
C0C0
C0C0
C0C0
FFC0
FF80
ENDCHAR
STARTCHAR 0043
ENCODING 67
SWIDTH 583 0
DWIDTH 14 0
BBX 12 14 1 0
BITMAP
3FC0
7FE0
E030
C030
C030
C000
C000
C000
C000
C030
C030
E030
7FE0
3FC0
ENDCHAR
STARTCHAR 0044
ENCODING 68
SWIDTH 625 0
DWIDTH 15 0
BBX 12 14 2 0
BITMAP
FFC0
FFE0
C060
C030
C030
C030
C030
C030
C030
C030
C030
C070
FFE0
FFC0
ENDCHAR
STARTCHAR 0045
ENCODING 69
SWIDTH 500 0
DWIDTH 12 0
BBX 9 14 2 0
BITMAP
FF80
FF80
C000
C000
C000
C000
FF80
FF80
C000
C000
C000
C000
FF80
FF80
ENDCHAR
STARTCHAR 0046
ENCODING 70
SWIDTH 458 0
DWIDTH 11 0
BBX 9 14 2 0
BITMAP
FF80
FF80
C000
C000
C000
C000
FF80
FF80
C000
C000
C000
C000
C000
C000
ENDCHAR
STARTCHAR 0047
ENCODING 71
SWIDTH 583 0
DWIDTH 14 0
BBX 12 14 1 0
BITMAP
3FC0
7FE0
E030
C030
C030
C000
C000
C3F0
C3F0
C030
C030
E030
7FE0
3FC0
ENDCHAR
STARTCHAR 0048
ENCODING 72
SWIDTH 625 0
DWIDTH 15 0
BBX 11 14 2 0
BITMAP
C060
C060
C060
C060
C060
C060
FFE0
FFE0
C060
C060
C060
C060
C060
C060
ENDCHAR
STARTCHAR 0049
ENCODING 73
SWIDTH 208 0
DWIDTH 5 0
BBX 2 14 2 0
BITMAP
C0
C0
C0
C0
C0
C0
C0
C0
C0
C0
C0
C0
C0
C0
ENDCHAR
STARTCHAR 004A
ENCODING 74
SWIDTH 500 0
DWIDTH 12 0
BBX 9 14 1 0
BITMAP
0180
0180
0180
0180
0180
0180
0180
0180
C180
C180
C180
C180
FF00
7E00
ENDCHAR
STARTCHAR 004B
ENCODING 75
SWIDTH 583 0
DWIDTH 14 0
BBX 12 14 2 0
BITMAP
C0E0
C1C0
C380
C700
C600
CC00
F800
FC00
CE00
C700
C380
C1C0
C0E0
C070
ENDCHAR
STARTCHAR 004C
ENCODING 76
SWIDTH 458 0
DWIDTH 11 0
BBX 9 14 2 0
BITMAP
C000
C000
C000
C000
C000
C000
C000
C000
C000
C000
C000
C000
FF80
FF80
ENDCHAR
STARTCHAR 004D
ENCODING 77
SWIDTH 791 0
DWIDTH 19 0
BBX 15 14 2 0
BITMAP
E00E
E00E
F01E
D016
D836
D836
C826
CC66
C446
C6C6
C6C6
C286
C386
C386
ENDCHAR
STARTCHAR 004E
ENCODING 78
SWIDTH 666 0
DWIDTH 16 0
BBX 12 14 2 0
BITMAP
E030
F030
F030
D830
C830
CC30
C630
C630
C330
C130
C1B0
C0F0
C0F0
C070
ENDCHAR
STARTCHAR 004F
ENCODING 79
SWIDTH 583 0
DWIDTH 14 0
BBX 12 14 1 0
BITMAP
3FC0
7FE0
E070
C030
C030
C030
C030
C030
C030
C030
C030
E070
7FE0
3FC0
ENDCHAR
STARTCHAR 0050
ENCODING 80
SWIDTH 583 0
DWIDTH 14 0
BBX 11 14 2 0
BITMAP
FF80
FFC0
C060
C060
C060
C060
C060
FFC0
FF80
C000
C000
C000
C000
C000
ENDCHAR
STARTCHAR 0051
ENCODING 81
SWIDTH 583 0
DWIDTH 14 0
BBX 13 14 1 0
BITMAP
3FC0
7FE0
E070
C030
C030
C030
C030
C030
C330
C1F0
C0F0
E078
7FF8
3FC0
ENDCHAR
STARTCHAR 0052
ENCODING 82
SWIDTH 625 0
DWIDTH 15 0
BBX 11 14 2 0
BITMAP
FFC0
FFE0
C060
C060
C060
C060
C0E0
FFC0
FFC0
C060
C060
C060
C060
C060
ENDCHAR
STARTCHAR 0053
ENCODING 83
SWIDTH 541 0
DWIDTH 13 0
BBX 11 14 1 0
BITMAP
7F80
FFC0
C0C0
C040
C000
C000
FF80
7FE0
0060
C060
C060
C060
FFE0
3FC0
ENDCHAR
STARTCHAR 0054
ENCODING 84
SWIDTH 500 0
DWIDTH 12 0
BBX 12 14 0 0
BITMAP
FFF0
FFF0
0600
0600
0600
0600
0600
0600
0600
0600
0600
0600
0600
0600
ENDCHAR
STARTCHAR 0055
ENCODING 85
SWIDTH 625 0
DWIDTH 15 0
BBX 11 14 2 0
BITMAP
C060
C060
C060
C060
C060
C060
C060
C060
C060
C060
C060
E060
7FC0
3F80
ENDCHAR
STARTCHAR 0056
ENCODING 86
SWIDTH 541 0
DWIDTH 13 0
BBX 13 14 0 0
BITMAP
C038
6030
6030
6060
3060
3060
18C0
18C0
18C0
0D80
0D80
0D80
0700
0700
ENDCHAR
STARTCHAR 0057
ENCODING 87
SWIDTH 875 0
DWIDTH 21 0
BBX 21 14 0 0
BITMAP
C07018
607010
605030
60D830
20D830
308860
318C60
318C60
198CC0
1B06C0
1B06C0
0F0780
0E0380
0E0380
ENDCHAR
STARTCHAR 0058
ENCODING 88
SWIDTH 541 0
DWIDTH 13 0
BBX 13 14 0 0
BITMAP
6030
7070
3060
18C0
0DC0
0D80
0700
0700
0D80
18C0
38E0
3060
6030
E038
ENDCHAR
STARTCHAR 0059
ENCODING 89
SWIDTH 541 0
DWIDTH 13 0
BBX 12 14 0 0
BITMAP
C030
6060
70E0
30C0
1980
1F80
0F00
0600
0600
0600
0600
0600
0600
0600
ENDCHAR
STARTCHAR 005A
ENCODING 90
SWIDTH 541 0
DWIDTH 13 0
BBX 11 14 1 0
BITMAP
FFE0
FFE0
00C0
0180
0300
0600
0600
0C00
1800
3000
6000
E000
FFE0
FFE0
ENDCHAR
STARTCHAR 005B
ENCODING 91
SWIDTH 333 0
DWIDTH 8 0
BBX 5 22 2 -4
BITMAP
F8
F8
C0
C0
C0
C0
C0
C0
C0
C0
C0
C0
C0
C0
C0
C0
C0
C0
C0
C0
F8
F8
ENDCHAR
STARTCHAR 005C
ENCODING 92
SWIDTH 583 0
DWIDTH 14 0
BBX 13 18 1 -2
BITMAP
8000
C000
4000
2000
3000
1000
0800
0C00
0600
0200
0300
0180
0080
00C0
0060
0020
0030
0018
ENDCHAR
STARTCHAR 005D
ENCODING 93
SWIDTH 333 0
DWIDTH 8 0
BBX 5 22 1 -4
BITMAP
F8
F8
18
18
18
18
18
18
18
18
18
18
18
18
18
18
18
18
18
18
F8
F8
ENDCHAR
STARTCHAR 005E
ENCODING 94
SWIDTH 500 0
DWIDTH 12 0
BBX 10 7 1 9
BITMAP
0C00
1E00
3300
3300
6180
4080
C0C0
ENDCHAR
STARTCHAR 005F
ENCODING 95
SWIDTH 500 0
DWIDTH 12 0
BBX 12 1 0 -3
BITMAP
FFF0
ENDCHAR
STARTCHAR 0060
ENCODING 96
SWIDTH 500 0
DWIDTH 12 0
BBX 4 3 3 16
BITMAP
C0
E0
30
ENDCHAR
STARTCHAR 0061
ENCODING 97
SWIDTH 541 0
DWIDTH 13 0
BBX 13 14 0 0
BITMAP
0700
0700
0D80
0D80
0CC0
18C0
18C0
1060
3060
3FE0
3FF0
6030
6018
C018
ENDCHAR
STARTCHAR 0062
ENCODING 98
SWIDTH 583 0
DWIDTH 14 0
BBX 11 14 2 0
BITMAP
FFC0
FFE0
C060
C060
C060
C060
FFC0
FFC0
C060
C060
C060
C060
FFE0
FFC0
ENDCHAR
STARTCHAR 0063
ENCODING 99
SWIDTH 541 0
DWIDTH 13 0
BBX 12 14 1 0
BITMAP
3FC0
7FE0
E070
C030
C030
C000
C000
C000
C000
C030
C030
E030
7FE0
3FC0
ENDCHAR
STARTCHAR 0064
ENCODING 100
SWIDTH 625 0
DWIDTH 15 0
BBX 12 14 2 0
BITMAP
FFC0
FFE0
C060
C030
C030
C030
C030
C030
C030
C030
C030
C060
FFE0
FFC0
ENDCHAR
STARTCHAR 0065
ENCODING 101
SWIDTH 500 0
DWIDTH 12 0
BBX 9 14 2 0
BITMAP
FF80
FF80
C000
C000
C000
C000
FF80
FF80
C000
C000
C000
C000
FF80
FF80
ENDCHAR
STARTCHAR 0066
ENCODING 102
SWIDTH 458 0
DWIDTH 11 0
BBX 9 14 2 0
BITMAP
FF80
FF80
C000
C000
C000
C000
FF00
FF00
C000
C000
C000
C000
C000
C000
ENDCHAR
STARTCHAR 0067
ENCODING 103
SWIDTH 583 0
DWIDTH 14 0
BBX 12 14 1 0
BITMAP
3FC0
7FF0
E030
C030
C030
C000
C000
C3F0
C3F0
C030
C030
E030
7FE0
3FC0
ENDCHAR
STARTCHAR 0068
ENCODING 104
SWIDTH 625 0
DWIDTH 15 0
BBX 11 14 2 0
BITMAP
C060
C060
C060
C060
C060
C060
FFE0
FFE0
C060
C060
C060
C060
C060
C060
ENDCHAR
STARTCHAR 0069
ENCODING 105
SWIDTH 208 0
DWIDTH 5 0
BBX 2 14 2 0
BITMAP
C0
C0
C0
C0
C0
C0
C0
C0
C0
C0
C0
C0
C0
C0
ENDCHAR
STARTCHAR 006A
ENCODING 106
SWIDTH 458 0
DWIDTH 11 0
BBX 9 14 1 0
BITMAP
0180
0180
0180
0180
0180
0180
0180
0180
0180
C180
C180
C180
FF80
7F00
ENDCHAR
STARTCHAR 006B
ENCODING 107
SWIDTH 583 0
DWIDTH 14 0
BBX 12 14 2 0
BITMAP
C0E0
C1C0
C180
C300
C600
CC00
F800
F800
CC00
C600
C380
C1C0
C0E0
C070
ENDCHAR
STARTCHAR 006C
ENCODING 108
SWIDTH 458 0
DWIDTH 11 0
BBX 9 14 2 0
BITMAP
C000
C000
C000
C000
C000
C000
C000
C000
C000
C000
C000
C000
FF80
FF80
ENDCHAR
STARTCHAR 006D
ENCODING 109
SWIDTH 791 0
DWIDTH 19 0
BBX 15 14 2 0
BITMAP
E00E
F01E
F01E
D016
D836
D836
C826
CC66
C446
C6C6
C6C6
C286
C386
C386
ENDCHAR
STARTCHAR 006E
ENCODING 110
SWIDTH 625 0
DWIDTH 15 0
BBX 12 14 2 0
BITMAP
E030
F030
F030
D830
C830
CC30
C630
C630
C330
C130
C1B0
C0F0
C0F0
C070
ENDCHAR
STARTCHAR 006F
ENCODING 111
SWIDTH 583 0
DWIDTH 14 0
BBX 12 14 1 0
BITMAP
3FC0
7FE0
E030
C030
C030
C030
C030
C030
C030
C030
C030
E030
7FE0
3FC0
ENDCHAR
STARTCHAR 0070
ENCODING 112
SWIDTH 541 0
DWIDTH 13 0
BBX 11 14 2 0
BITMAP
FF80
FFC0
C060
C060
C060
C060
C0E0
FFC0
FF80
C000
C000
C000
C000
C000
ENDCHAR
STARTCHAR 0071
ENCODING 113
SWIDTH 583 0
DWIDTH 14 0
BBX 13 14 1 0
BITMAP
3FC0
7FE0
E030
C030
C030
C030
C030
C030
C330
C1F0
C0F0
E030
7FF8
3FC0
ENDCHAR
STARTCHAR 0072
ENCODING 114
SWIDTH 583 0
DWIDTH 14 0
BBX 11 14 2 0
BITMAP
FF80
FFC0
C060
C060
C060
C060
C0E0
FFC0
FFC0
C060
C060
C060
C060
C060
ENDCHAR
STARTCHAR 0073
ENCODING 115
SWIDTH 541 0
DWIDTH 13 0
BBX 11 14 1 0
BITMAP
3F80
FFC0
E0C0
C060
C000
C000
7F80
0FC0
0060
0060
C060
C060
FFE0
7FC0
ENDCHAR
STARTCHAR 0074
ENCODING 116
SWIDTH 500 0
DWIDTH 12 0
BBX 11 14 0 0
BITMAP
FFE0
FFE0
0600
0600
0600
0600
0600
0600
0600
0600
0600
0600
0600
0600
ENDCHAR
STARTCHAR 0075
ENCODING 117
SWIDTH 625 0
DWIDTH 15 0
BBX 11 14 2 0
BITMAP
C060
C060
C060
C060
C060
C060
C060
C060
C060
C060
C060
C060
7FC0
3F80
ENDCHAR
STARTCHAR 0076
ENCODING 118
SWIDTH 541 0
DWIDTH 13 0
BBX 13 14 0 0
BITMAP
C038
6030
6030
6060
3060
3060
18C0
18C0
18C0
0D80
0D80
0D80
0700
0700
ENDCHAR
STARTCHAR 0077
ENCODING 119
SWIDTH 875 0
DWIDTH 21 0
BBX 21 14 0 0
BITMAP
C07018
607010
605030
60D830
20D830
308860
318C60
318C60
198CC0
1B06C0
1B06C0
0F0780
0E0380
0E0380
ENDCHAR
STARTCHAR 0078
ENCODING 120
SWIDTH 541 0
DWIDTH 13 0
BBX 13 14 0 0
BITMAP
6030
7070
3060
18C0
0DC0
0D80
0700
0700
0D80
18C0
38E0
3060
6030
E038
ENDCHAR
STARTCHAR 0079
ENCODING 121
SWIDTH 541 0
DWIDTH 13 0
BBX 12 14 0 0
BITMAP
C030
6060
70E0
30C0
1980
1F80
0F00
0600
0600
0600
0600
0600
0600
0600
ENDCHAR
STARTCHAR 007A
ENCODING 122
SWIDTH 541 0
DWIDTH 13 0
BBX 11 14 1 0
BITMAP
FFE0
FFE0
00C0
01C0
0380
0300
0600
0C00
1800
3000
6000
6000
FFE0
FFE0
ENDCHAR
STARTCHAR 007B
ENCODING 123
SWIDTH 333 0
DWIDTH 8 0
BBX 5 22 1 -4
BITMAP
38
78
60
60
60
60
60
60
60
60
C0
C0
60
60
60
60
60
60
60
60
78
38
ENDCHAR
STARTCHAR 007C
ENCODING 124
SWIDTH 291 0
DWIDTH 7 0
BBX 2 20 2 -4
BITMAP
C0
C0
C0
C0
C0
C0
C0
C0
C0
C0
C0
C0
C0
C0
C0
C0
C0
C0
C0
C0
ENDCHAR
STARTCHAR 007D
ENCODING 125
SWIDTH 333 0
DWIDTH 8 0
BBX 6 22 1 -4
BITMAP
F0
F8
38
18
18
18
18
18
18
18
0C
0C
18
18
18
18
18
18
18
18
F8
F0
ENDCHAR
STARTCHAR 007E
ENCODING 126
SWIDTH 666 0
DWIDTH 16 0
BBX 11 3 3 14
BITMAP
7860
FFC0
8780
ENDCHAR
STARTCHAR 00A0
ENCODING 160
SWIDTH 291 0
DWIDTH 7 0
BBX 0 0 0 0
BITMAP
ENDCHAR
STARTCHAR 00A1
ENCODING 161
SWIDTH 250 0
DWIDTH 6 0
BBX 2 16 2 -2
BITMAP
C0
C0
C0
00
00
C0
C0
C0
C0
C0
C0
C0
C0
C0
C0
C0
ENDCHAR
STARTCHAR 00A2
ENCODING 162
SWIDTH 500 0
DWIDTH 12 0
BBX 10 13 1 0
BITMAP
0C00
1C00
7F00
CD80
CC80
CC00
CC00
CC00
CCC0
CC80
7F80
1E00
0C00
ENDCHAR
STARTCHAR 00A3
ENCODING 163
SWIDTH 541 0
DWIDTH 13 0
BBX 11 14 1 0
BITMAP
1FC0
7FE0
6060
6060
6000
6000
6000
FE00
FE00
6000
6000
6000
FFE0
FFE0
ENDCHAR
STARTCHAR 00A4
ENCODING 164
SWIDTH 666 0
DWIDTH 16 0
BBX 13 14 1 0
BITMAP
0008
C798
68F0
3060
2030
6030
6030
6030
6030
2030
3060
38F0
6798
4008
ENDCHAR
STARTCHAR 00A5
ENCODING 165
SWIDTH 500 0
DWIDTH 12 0
BBX 12 14 0 0
BITMAP
E070
6060
30C0
30C0
79E0
7FE0
0F00
7FE0
7FE0
0600
0600
0600
0600
0600
ENDCHAR
STARTCHAR 00A6
ENCODING 166
SWIDTH 291 0
DWIDTH 7 0
BBX 2 20 2 -4
BITMAP
C0
C0
C0
C0
C0
C0
C0
C0
00
00
00
00
C0
C0
C0
C0
C0
C0
C0
C0
ENDCHAR
STARTCHAR 00A7
ENCODING 167
SWIDTH 583 0
DWIDTH 14 0
BBX 12 20 1 -4
BITMAP
3FC0
7FE0
6060
6060
6000
7000
3E00
C7C0
C0F0
C030
C030
E030
3C20
03C0
0060
0060
C060
C060
7FE0
3FC0
ENDCHAR
STARTCHAR 00A8
ENCODING 168
SWIDTH 500 0
DWIDTH 12 0
BBX 7 2 3 16
BITMAP
C6
C6
ENDCHAR
STARTCHAR 00A9
ENCODING 169
SWIDTH 750 0
DWIDTH 18 0
BBX 16 16 1 0
BITMAP
07E0
1818
300C
67E6
4832
8831
8801
8801
8801
8831
8831
47E2
6006
300C
1818
07E0
ENDCHAR
STARTCHAR 00AA
ENCODING 170
SWIDTH 375 0
DWIDTH 9 0
BBX 8 8 0 6
BITMAP
3E
43
43
7F
C3
C3
C3
7F
ENDCHAR
STARTCHAR 00AB
ENCODING 171
SWIDTH 500 0
DWIDTH 12 0
BBX 9 11 1 2
BITMAP
3180
3100
2300
6200
4600
C600
6600
6300
3300
3180
1000
ENDCHAR
STARTCHAR 00AC
ENCODING 172
SWIDTH 500 0
DWIDTH 12 0
BBX 10 7 1 0
BITMAP
FFC0
FFC0
00C0
00C0
00C0
00C0
00C0
ENDCHAR
STARTCHAR 00AD
ENCODING 173
SWIDTH 250 0
DWIDTH 6 0
BBX 6 2 0 6
BITMAP
FC
FC
ENDCHAR
STARTCHAR 00AE
ENCODING 174
SWIDTH 750 0
DWIDTH 18 0
BBX 17 16 0 0
BITMAP
03E000
0C1800
300600
67E300
441100
C41180
841080
841080
87E080
841080
841080
441100
600300
300600
0C1800
03E000
ENDCHAR
STARTCHAR 00AF
ENCODING 175
SWIDTH 500 0
DWIDTH 12 0
BBX 12 1 0 18
BITMAP
FFF0
ENDCHAR
STARTCHAR 00B0
ENCODING 176
SWIDTH 375 0
DWIDTH 9 0
BBX 7 6 1 10
BITMAP
38
C6
82
82
C6
38
ENDCHAR
STARTCHAR 00B1
ENCODING 177
SWIDTH 541 0
DWIDTH 13 0
BBX 11 13 1 0
BITMAP
0C00
0C00
0C00
0C00
FFE0
FFE0
0C00
0C00
0C00
0C00
0000
FFE0
FFE0
ENDCHAR
STARTCHAR 00B2
ENCODING 178
SWIDTH 416 0
DWIDTH 10 0
BBX 8 10 1 4
BITMAP
7E
C3
C3
C3
03
3F
FC
C0
C0
FF
ENDCHAR
STARTCHAR 00B3
ENCODING 179
SWIDTH 416 0
DWIDTH 10 0
BBX 9 10 0 4
BITMAP
7F00
6180
6180
0180
0F00
0180
C180
C180
4180
3F00
ENDCHAR
STARTCHAR 00B4
ENCODING 180
SWIDTH 500 0
DWIDTH 12 0
BBX 4 3 5 16
BITMAP
30
70
C0
ENDCHAR
STARTCHAR 00B5
ENCODING 181
SWIDTH 583 0
DWIDTH 14 0
BBX 11 15 2 -3
BITMAP
C060
C060
C060
C060
C060
C060
C060
C060
C060
C060
FFE0
BF80
8000
C000
C000
ENDCHAR
STARTCHAR 00B6
ENCODING 182
SWIDTH 625 0
DWIDTH 15 0
BBX 12 18 1 -2
BITMAP
3FF0
7FF0
FF30
FF30
FF30
FF30
FF30
FF30
FF30
7F30
3F30
0330
0330
0330
0330
0330
0330
0330
ENDCHAR
STARTCHAR 00B7
ENCODING 183
SWIDTH 208 0
DWIDTH 5 0
BBX 2 3 1 5
BITMAP
C0
C0
C0
ENDCHAR
STARTCHAR 00B8
ENCODING 184
SWIDTH 500 0
DWIDTH 12 0
BBX 3 5 5 -5
BITMAP
20
20
60
E0
C0
ENDCHAR
STARTCHAR 00B9
ENCODING 185
SWIDTH 416 0
DWIDTH 10 0
BBX 5 10 3 4
BITMAP
38
78
D8
98
18
18
18
18
18
18
ENDCHAR
STARTCHAR 00BA
ENCODING 186
SWIDTH 375 0
DWIDTH 9 0
BBX 7 8 1 6
BITMAP
7C
C6
C6
C6
C6
C6
C6
7C
ENDCHAR
STARTCHAR 00BB
ENCODING 187
SWIDTH 500 0
DWIDTH 12 0
BBX 8 11 2 2
BITMAP
8C
C4
46
62
23
33
63
66
C6
CC
80
ENDCHAR
STARTCHAR 00BC
ENCODING 188
SWIDTH 1000 0
DWIDTH 24 0
BBX 22 14 1 0
BITMAP
380600
780C00
D80C00
981800
181000
183070
1860B0
1861B0
18C330
188630
018430
030FFC
030030
060030
ENDCHAR
STARTCHAR 00BD
ENCODING 189
SWIDTH 958 0
DWIDTH 23 0
BBX 21 14 1 0
BITMAP
380C00
780800
D81800
981000
1833F0
186618
184618
18C018
188038
1983F8
0307E0
030600
060600
0407F8
ENDCHAR
STARTCHAR 00BE
ENCODING 190
SWIDTH 958 0
DWIDTH 23 0
BBX 22 14 0 0
BITMAP
7F0300
618600
618400
018C00
0F0838
019878
C190D8
C1B098
C1A198
41E318
3F4618
00C7FC
008018
018018
ENDCHAR
STARTCHAR 00BF
ENCODING 191
SWIDTH 458 0
DWIDTH 11 0
BBX 9 16 1 -2
BITMAP
0C00
0C00
0C00
0000
0000
0C00
0C00
0C00
3C00
F000
C000
C000
C180
C180
FF80
7F00
ENDCHAR
STARTCHAR 00C0
ENCODING 192
SWIDTH 541 0
DWIDTH 13 0
BBX 13 19 0 1
BITMAP
0C00
0E00
0300
0000
0000
0700
0700
0D80
0D80
0CC0
18C0
18C0
1060
3060
3FE0
3FF0
6030
6018
C018
ENDCHAR
STARTCHAR 00C1
ENCODING 193
SWIDTH 541 0
DWIDTH 13 0
BBX 13 19 0 1
BITMAP
00C0
01C0
0300
0000
0000
0700
0700
0D80
0D80
0CC0
18C0
18C0
1060
3060
3FE0
3FF0
6030
6018
C018
ENDCHAR
STARTCHAR 00C2
ENCODING 194
SWIDTH 541 0
DWIDTH 13 0
BBX 13 19 0 0
BITMAP
0300
0780
0CC0
0840
0000
0700
0700
0D80
0D80
0CC0
18C0
18C0
1060
3060
3FE0
3FF0
6030
6018
C018
ENDCHAR
STARTCHAR 00C3
ENCODING 195
SWIDTH 541 0
DWIDTH 13 0
BBX 13 18 0 1
BITMAP
0E60
19C0
0000
0000
0700
0700
0D80
0D80
0CC0
18C0
18C0
1060
3060
3FE0
3FF0
6030
6018
C018
ENDCHAR
STARTCHAR 00C4
ENCODING 196
SWIDTH 541 0
DWIDTH 13 0
BBX 13 18 0 0
BITMAP
0C60
0C60
0000
0000
0700
0700
0D80
0D80
0CC0
18C0
18C0
1060
3060
3FE0
3FF0
6030
6018
C018
ENDCHAR
STARTCHAR 00C5
ENCODING 197
SWIDTH 541 0
DWIDTH 13 0
BBX 13 19 0 0
BITMAP
0300
0480
0480
0300
0000
0700
0700
0D80
0D80
0CC0
18C0
18C0
1060
3060
3FE0
3FF0
6030
6018
C018
ENDCHAR
STARTCHAR 00C6
ENCODING 198
SWIDTH 833 0
DWIDTH 20 0
BBX 19 14 0 0
BITMAP
00FFE0
01FFE0
03B000
033000
063000
063000
0C3FE0
0C3FE0
183000
1FF000
3FF000
703000
603FE0
E03FE0
ENDCHAR
STARTCHAR 00C7
ENCODING 199
SWIDTH 583 0
DWIDTH 14 0
BBX 12 19 1 -5
BITMAP
3FC0
7FE0
E030
C030
C030
C000
C000
C000
C000
C030
C030
E030
7FE0
3FC0
0200
0200
0200
0E00
0C00
ENDCHAR
STARTCHAR 00C8
ENCODING 200
SWIDTH 500 0
DWIDTH 12 0
BBX 9 19 2 1
BITMAP
6000
7000
1800
0000
0000
FF80
FF80
C000
C000
C000
C000
FF80
FF80
C000
C000
C000
C000
FF80
FF80
ENDCHAR
STARTCHAR 00C9
ENCODING 201
SWIDTH 500 0
DWIDTH 12 0
BBX 9 19 2 1
BITMAP
0600
0E00
1800
0000
0000
FF80
FF80
C000
C000
C000
C000
FF80
FF80
C000
C000
C000
C000
FF80
FF80
ENDCHAR
STARTCHAR 00CA
ENCODING 202
SWIDTH 500 0
DWIDTH 12 0
BBX 9 19 2 0
BITMAP
1800
3C00
6600
4200
0000
FF80
FF80
C000
C000
C000
C000
FF80
FF80
C000
C000
C000
C000
FF80
FF80
ENDCHAR
STARTCHAR 00CB
ENCODING 203
SWIDTH 500 0
DWIDTH 12 0
BBX 9 18 2 0
BITMAP
6300
6300
0000
0000
FF80
FF80
C000
C000
C000
C000
FF80
FF80
C000
C000
C000
C000
FF80
FF80
ENDCHAR
STARTCHAR 00CC
ENCODING 204
SWIDTH 208 0
DWIDTH 5 0
BBX 4 19 0 1
BITMAP
C0
E0
30
00
00
30
30
30
30
30
30
30
30
30
30
30
30
30
30
ENDCHAR
STARTCHAR 00CD
ENCODING 205
SWIDTH 208 0
DWIDTH 5 0
BBX 4 19 2 1
BITMAP
30
70
C0
00
00
C0
C0
C0
C0
C0
C0
C0
C0
C0
C0
C0
C0
C0
C0
ENDCHAR
STARTCHAR 00CE
ENCODING 206
SWIDTH 208 0
DWIDTH 5 0
BBX 7 19 -1 0
BITMAP
10
38
E6
02
00
18
18
18
18
18
18
18
18
18
18
18
18
18
18
ENDCHAR
STARTCHAR 00CF
ENCODING 207
SWIDTH 208 0
DWIDTH 5 0
BBX 6 18 0 0
BITMAP
CC
CC
00
00
30
30
30
30
30
30
30
30
30
30
30
30
30
30
ENDCHAR
STARTCHAR 00D0
ENCODING 208
SWIDTH 625 0
DWIDTH 15 0
BBX 13 14 1 0
BITMAP
7FE0
7FF0
6030
6018
6018
6018
6018
FE18
6018
6018
6018
6038
7FF0
7FE0
ENDCHAR
STARTCHAR 00D1
ENCODING 209
SWIDTH 625 0
DWIDTH 15 0
BBX 12 18 2 1
BITMAP
1CC0
3380
0000
0000
E030
F030
F030
D830
C830
CC30
C630
C630
C330
C130
C1B0
C0F0
C0F0
C070
ENDCHAR
STARTCHAR 00D2
ENCODING 210
SWIDTH 583 0
DWIDTH 14 0
BBX 12 19 1 1
BITMAP
1800
1C00
0600
0000
0000
3FC0
7FE0
E030
C030
C030
C030
C030
C030
C030
C030
C030
E030
7FE0
3FC0
ENDCHAR
STARTCHAR 00D3
ENCODING 211
SWIDTH 583 0
DWIDTH 14 0
BBX 12 19 1 1
BITMAP
0180
0380
0600
0000
0000
3FC0
7FE0
E030
C030
C030
C030
C030
C030
C030
C030
C030
E030
7FE0
3FC0
ENDCHAR
STARTCHAR 00D4
ENCODING 212
SWIDTH 583 0
DWIDTH 14 0
BBX 12 19 1 0
BITMAP
0600
0F00
1980
1080
0000
3FC0
7FE0
E030
C030
C030
C030
C030
C030
C030
C030
C030
E030
7FE0
3FC0
ENDCHAR
STARTCHAR 00D5
ENCODING 213
SWIDTH 583 0
DWIDTH 14 0
BBX 12 18 1 1
BITMAP
1CC0
3380
0000
0000
3FC0
7FE0
E030
C030
C030
C030
C030
C030
C030
C030
C030
E030
7FE0
3FC0
ENDCHAR
STARTCHAR 00D6
ENCODING 214
SWIDTH 583 0
DWIDTH 14 0
BBX 12 18 1 0
BITMAP
18C0
18C0
0000
0000
3FC0
7FE0
E030
C030
C030
C030
C030
C030
C030
C030
C030
E030
7FE0
3FC0
ENDCHAR
STARTCHAR 00D7
ENCODING 215
SWIDTH 541 0
DWIDTH 13 0
BBX 10 10 1 1
BITMAP
4040
E0C0
7180
3B00
1E00
0E00
1F00
3380
61C0
C0C0
ENDCHAR
STARTCHAR 00D8
ENCODING 216
SWIDTH 583 0
DWIDTH 14 0
BBX 12 14 1 -1
BITMAP
3FD0
7FF0
E060
C070
C0F0
C1B0
C330
C630
CC30
D030
E030
C070
FFE0
BFC0
ENDCHAR
STARTCHAR 00D9
ENCODING 217
SWIDTH 625 0
DWIDTH 15 0
BBX 11 19 2 1
BITMAP
3000
3800
0C00
0000
0000
C060
C060
C060
C060
C060
C060
C060
C060
C060
C060
C060
C060
7FC0
3F80
ENDCHAR
STARTCHAR 00DA
ENCODING 218
SWIDTH 625 0
DWIDTH 15 0
BBX 11 19 2 1
BITMAP
0300
0700
0C00
0000
0000
C060
C060
C060
C060
C060
C060
C060
C060
C060
C060
C060
C060
7FC0
3F80
ENDCHAR
STARTCHAR 00DB
ENCODING 219
SWIDTH 625 0
DWIDTH 15 0
BBX 11 19 2 0
BITMAP
0C00
1E00
3300
2100
0000
C060
C060
C060
C060
C060
C060
C060
C060
C060
C060
C060
C060
7FC0
3F80
ENDCHAR
STARTCHAR 00DC
ENCODING 220
SWIDTH 625 0
DWIDTH 15 0
BBX 11 18 2 0
BITMAP
3180
3180
0000
0000
C060
C060
C060
C060
C060
C060
C060
C060
C060
C060
C060
C060
7FC0
3F80
ENDCHAR
STARTCHAR 00DD
ENCODING 221
SWIDTH 541 0
DWIDTH 13 0
BBX 12 19 0 1
BITMAP
0180
0380
0600
0000
0000
C030
6060
70E0
30C0
1980
1F80
0F00
0600
0600
0600
0600
0600
0600
0600
ENDCHAR
STARTCHAR 00DE
ENCODING 222
SWIDTH 583 0
DWIDTH 14 0
BBX 11 14 2 0
BITMAP
C000
C000
C000
FF80
FFC0
C060
C060
C060
C060
FFE0
FFC0
C000
C000
C000
ENDCHAR
STARTCHAR 00DF
ENCODING 223
SWIDTH 541 0
DWIDTH 13 0
BBX 11 15 1 -1
BITMAP
3F80
FFC0
C0E0
C060
C060
C0C0
CFC0
CFC0
C060
C060
C060
C060
CFE0
CFC0
C000
ENDCHAR
STARTCHAR 00E0
ENCODING 224
SWIDTH 541 0
DWIDTH 13 0
BBX 13 19 0 1
BITMAP
0C00
0E00
0300
0000
0000
0700
0700
0D80
0D80
0CC0
18C0
18C0
1060
3060
3FE0
3FF0
6030
6018
C018
ENDCHAR
STARTCHAR 00E1
ENCODING 225
SWIDTH 541 0
DWIDTH 13 0
BBX 13 19 0 1
BITMAP
00C0
01C0
0300
0000
0000
0700
0700
0D80
0D80
0CC0
18C0
18C0
1060
3060
3FE0
3FF0
6030
6018
C018
ENDCHAR
STARTCHAR 00E2
ENCODING 226
SWIDTH 541 0
DWIDTH 13 0
BBX 13 19 0 0
BITMAP
0300
0780
0CC0
0840
0000
0700
0700
0D80
0D80
0CC0
18C0
18C0
1060
3060
3FE0
3FF0
6030
6018
C018
ENDCHAR
STARTCHAR 00E3
ENCODING 227
SWIDTH 541 0
DWIDTH 13 0
BBX 13 18 0 1
BITMAP
0E60
19C0
0000
0000
0700
0700
0D80
0D80
0CC0
18C0
18C0
1060
3060
3FE0
3FF0
6030
6018
C018
ENDCHAR
STARTCHAR 00E4
ENCODING 228
SWIDTH 541 0
DWIDTH 13 0
BBX 13 18 0 0
BITMAP
0C60
0C60
0000
0000
0700
0700
0D80
0D80
0CC0
18C0
18C0
1060
3060
3FE0
3FF0
6030
6018
C018
ENDCHAR
STARTCHAR 00E5
ENCODING 229
SWIDTH 541 0
DWIDTH 13 0
BBX 13 19 0 0
BITMAP
0300
0480
0480
0300
0000
0700
0700
0D80
0D80
0CC0
18C0
18C0
1060
3060
3FE0
3FF0
6030
6018
C018
ENDCHAR
STARTCHAR 00E6
ENCODING 230
SWIDTH 833 0
DWIDTH 20 0
BBX 19 14 0 0
BITMAP
00FFE0
01FFE0
03B000
033000
063000
063000
0C3FE0
0C3FE0
183000
1FF000
3FF000
703000
603FE0
E03FE0
ENDCHAR
STARTCHAR 00E7
ENCODING 231
SWIDTH 583 0
DWIDTH 14 0
BBX 12 19 1 -5
BITMAP
3FC0
7FE0
E030
C030
C030
C000
C000
C000
C000
C030
C030
E030
7FE0
3FC0
0200
0200
0200
0E00
0C00
ENDCHAR
STARTCHAR 00E8
ENCODING 232
SWIDTH 500 0
DWIDTH 12 0
BBX 9 19 2 1
BITMAP
6000
7000
1800
0000
0000
FF80
FF80
C000
C000
C000
C000
FF80
FF80
C000
C000
C000
C000
FF80
FF80
ENDCHAR
STARTCHAR 00E9
ENCODING 233
SWIDTH 500 0
DWIDTH 12 0
BBX 9 19 2 1
BITMAP
0600
0E00
1800
0000
0000
FF80
FF80
C000
C000
C000
C000
FF80
FF80
C000
C000
C000
C000
FF80
FF80
ENDCHAR
STARTCHAR 00EA
ENCODING 234
SWIDTH 500 0
DWIDTH 12 0
BBX 9 19 2 0
BITMAP
1800
3C00
6600
4200
0000
FF80
FF80
C000
C000
C000
C000
FF80
FF80
C000
C000
C000
C000
FF80
FF80
ENDCHAR
STARTCHAR 00EB
ENCODING 235
SWIDTH 500 0
DWIDTH 12 0
BBX 9 18 2 0
BITMAP
6300
6300
0000
0000
FF80
FF80
C000
C000
C000
C000
FF80
FF80
C000
C000
C000
C000
FF80
FF80
ENDCHAR
STARTCHAR 00EC
ENCODING 236
SWIDTH 208 0
DWIDTH 5 0
BBX 4 19 0 1
BITMAP
C0
E0
30
00
00
30
30
30
30
30
30
30
30
30
30
30
30
30
30
ENDCHAR
STARTCHAR 00ED
ENCODING 237
SWIDTH 208 0
DWIDTH 5 0
BBX 4 19 2 1
BITMAP
30
70
C0
00
00
C0
C0
C0
C0
C0
C0
C0
C0
C0
C0
C0
C0
C0
C0
ENDCHAR
STARTCHAR 00EE
ENCODING 238
SWIDTH 208 0
DWIDTH 5 0
BBX 7 19 -1 0
BITMAP
10
38
E6
02
00
18
18
18
18
18
18
18
18
18
18
18
18
18
18
ENDCHAR
STARTCHAR 00EF
ENCODING 239
SWIDTH 208 0
DWIDTH 5 0
BBX 6 18 0 0
BITMAP
CC
CC
00
00
30
30
30
30
30
30
30
30
30
30
30
30
30
30
ENDCHAR
STARTCHAR 00F0
ENCODING 240
SWIDTH 625 0
DWIDTH 15 0
BBX 12 14 1 0
BITMAP
7FC0
7FE0
6070
6030
6030
6030
FC30
6030
6030
6030
6030
6070
7FE0
7FC0
ENDCHAR
STARTCHAR 00F1
ENCODING 241
SWIDTH 625 0
DWIDTH 15 0
BBX 12 18 2 1
BITMAP
1CC0
3380
0000
0000
E030
F030
F030
D830
C830
CC30
C630
C630
C330
C130
C1B0
C0F0
C0F0
C070
ENDCHAR
STARTCHAR 00F2
ENCODING 242
SWIDTH 583 0
DWIDTH 14 0
BBX 12 19 1 1
BITMAP
1800
1C00
0600
0000
0000
3FC0
7FE0
E030
C030
C030
C030
C030
C030
C030
C030
C030
E030
7FE0
3FC0
ENDCHAR
STARTCHAR 00F3
ENCODING 243
SWIDTH 583 0
DWIDTH 14 0
BBX 12 19 1 1
BITMAP
0180
0380
0600
0000
0000
3FC0
7FE0
E030
C030
C030
C030
C030
C030
C030
C030
C030
E030
7FE0
3FC0
ENDCHAR
STARTCHAR 00F4
ENCODING 244
SWIDTH 583 0
DWIDTH 14 0
BBX 12 19 1 0
BITMAP
0600
0F00
1980
1080
0000
3FC0
7FE0
E030
C030
C030
C030
C030
C030
C030
C030
C030
E030
7FE0
3FC0
ENDCHAR
STARTCHAR 00F5
ENCODING 245
SWIDTH 583 0
DWIDTH 14 0
BBX 12 18 1 1
BITMAP
1CC0
3380
0000
0000
3FC0
7FE0
E030
C030
C030
C030
C030
C030
C030
C030
C030
E030
7FE0
3FC0
ENDCHAR
STARTCHAR 00F6
ENCODING 246
SWIDTH 583 0
DWIDTH 14 0
BBX 12 18 1 0
BITMAP
18C0
18C0
0000
0000
3FC0
7FE0
E030
C030
C030
C030
C030
C030
C030
C030
C030
E030
7FE0
3FC0
ENDCHAR
STARTCHAR 00F7
ENCODING 247
SWIDTH 541 0
DWIDTH 13 0
BBX 11 10 1 1
BITMAP
0C00
0C00
0000
0000
FFE0
FFE0
0000
0000
0C00
0C00
ENDCHAR
STARTCHAR 00F8
ENCODING 248
SWIDTH 541 0
DWIDTH 13 0
BBX 13 14 0 0
BITMAP
3FE8
7FF8
E038
C078
C0D8
C198
C318
C618
CC18
D818
F018
E038
FFF0
BFE0
ENDCHAR
STARTCHAR 00F9
ENCODING 249
SWIDTH 625 0
DWIDTH 15 0
BBX 11 19 2 1
BITMAP
3000
3800
0C00
0000
0000
C060
C060
C060
C060
C060
C060
C060
C060
C060
C060
C060
C060
7FC0
3F80
ENDCHAR
STARTCHAR 00FA
ENCODING 250
SWIDTH 625 0
DWIDTH 15 0
BBX 11 19 2 1
BITMAP
0300
0700
0C00
0000
0000
C060
C060
C060
C060
C060
C060
C060
C060
C060
C060
C060
C060
7FC0
3F80
ENDCHAR
STARTCHAR 00FB
ENCODING 251
SWIDTH 625 0
DWIDTH 15 0
BBX 11 19 2 0
BITMAP
0C00
1E00
3300
2100
0000
C060
C060
C060
C060
C060
C060
C060
C060
C060
C060
C060
C060
7FC0
3F80
ENDCHAR
STARTCHAR 00FC
ENCODING 252
SWIDTH 625 0
DWIDTH 15 0
BBX 11 18 2 0
BITMAP
3180
3180
0000
0000
C060
C060
C060
C060
C060
C060
C060
C060
C060
C060
C060
C060
7FC0
3F80
ENDCHAR
STARTCHAR 00FD
ENCODING 253
SWIDTH 541 0
DWIDTH 13 0
BBX 12 19 0 1
BITMAP
0180
0380
0600
0000
0000
C030
6060
70E0
30C0
1980
1F80
0F00
0600
0600
0600
0600
0600
0600
0600
ENDCHAR
STARTCHAR 00FE
ENCODING 254
SWIDTH 541 0
DWIDTH 13 0
BBX 11 14 2 0
BITMAP
C000
C000
C000
FFC0
FFC0
C060
C060
C060
C060
FFE0
FFC0
C000
C000
C000
ENDCHAR
STARTCHAR 00FF
ENCODING 255
SWIDTH 541 0
DWIDTH 13 0
BBX 12 18 0 0
BITMAP
18C0
18C0
0000
0000
C030
6060
70E0
30C0
1980
1F80
0F00
0600
0600
0600
0600
0600
0600
0600
ENDCHAR
STARTCHAR 0106
ENCODING 262
SWIDTH 541 0
DWIDTH 13 0
BBX 12 19 1 1
BITMAP
0180
0380
0600
0000
0000
3FC0
7FE0
E070
C030
C030
C000
C000
C000
C000
C030
C030
E030
7FE0
3FC0
ENDCHAR
STARTCHAR 0107
ENCODING 263
SWIDTH 541 0
DWIDTH 13 0
BBX 12 19 1 1
BITMAP
0180
0380
0600
0000
0000
3FC0
7FE0
E070
C030
C030
C000
C000
C000
C000
C030
C030
E030
7FE0
3FC0
ENDCHAR
STARTCHAR 010C
ENCODING 268
SWIDTH 541 0
DWIDTH 13 0
BBX 12 19 1 0
BITMAP
1080
1B80
0F00
0400
0000
3FC0
7FE0
E070
C030
C030
C000
C000
C000
C000
C030
C030
E030
7FE0
3FC0
ENDCHAR
STARTCHAR 010D
ENCODING 269
SWIDTH 541 0
DWIDTH 13 0
BBX 12 19 1 0
BITMAP
1080
1B80
0F00
0400
0000
3FC0
7FE0
E070
C030
C030
C000
C000
C000
C000
C030
C030
E030
7FE0
3FC0
ENDCHAR
STARTCHAR 0111
ENCODING 273
SWIDTH 625 0
DWIDTH 15 0
BBX 12 14 1 0
BITMAP
7FC0
7FE0
6070
6030
6030
6030
FC30
6030
6030
6030
6030
6070
7FE0
7FC0
ENDCHAR
STARTCHAR 011E
ENCODING 286
SWIDTH 583 0
DWIDTH 14 0
BBX 12 19 1 0
BITMAP
1080
1980
0F00
0000
0000
3FC0
7FF0
E030
C030
C030
C000
C000
C3F0
C3F0
C030
C030
E030
7FE0
3FC0
ENDCHAR
STARTCHAR 011F
ENCODING 287
SWIDTH 583 0
DWIDTH 14 0
BBX 12 19 1 0
BITMAP
1080
1980
0F00
0000
0000
3FC0
7FF0
E030
C030
C030
C000
C000
C3F0
C3F0
C030
C030
E030
7FE0
3FC0
ENDCHAR
STARTCHAR 0130
ENCODING 304
SWIDTH 250 0
DWIDTH 6 0
BBX 2 17 2 1
BITMAP
C0
C0
00
C0
C0
C0
C0
C0
C0
C0
C0
C0
C0
C0
C0
C0
C0
ENDCHAR
STARTCHAR 0131
ENCODING 305
SWIDTH 208 0
DWIDTH 5 0
BBX 2 14 2 0
BITMAP
C0
C0
C0
C0
C0
C0
C0
C0
C0
C0
C0
C0
C0
C0
ENDCHAR
STARTCHAR 0141
ENCODING 321
SWIDTH 500 0
DWIDTH 12 0
BBX 10 14 1 0
BITMAP
6000
6000
6000
6000
6800
7800
7000
6000
E000
E000
6000
6000
7FC0
7FC0
ENDCHAR
STARTCHAR 0142
ENCODING 322
SWIDTH 500 0
DWIDTH 12 0
BBX 10 14 1 0
BITMAP
6000
6000
6000
6000
6800
7800
7000
6000
E000
6000
6000
6000
7FC0
7FC0
ENDCHAR
STARTCHAR 0152
ENCODING 338
SWIDTH 875 0
DWIDTH 21 0
BBX 19 14 1 0
BITMAP
3FBFE0
7FFFE0
E07000
C03000
C03000
C03000
C03FE0
C03FE0
C03000
C03000
C03000
E07000
7FFFE0
3FBFE0
ENDCHAR
STARTCHAR 0153
ENCODING 339
SWIDTH 875 0
DWIDTH 21 0
BBX 19 14 1 0
BITMAP
3FBFE0
7FFFE0
E07000
C03000
C03000
C03000
C03FE0
C03FE0
C03000
C03000
C03000
E07000
7FFFE0
3FBFE0
ENDCHAR
STARTCHAR 015E
ENCODING 350
SWIDTH 541 0
DWIDTH 13 0
BBX 11 19 1 -5
BITMAP
3F80
FFC0
E0C0
C060
C000
C000
7F80
0FC0
0060
0060
C060
C060
FFE0
7FC0
0200
0200
0600
0E00
0C00
ENDCHAR
STARTCHAR 015F
ENCODING 351
SWIDTH 541 0
DWIDTH 13 0
BBX 11 19 1 -5
BITMAP
3F80
FFC0
E0C0
C060
C000
C000
7F80
0FC0
0060
0060
C060
C060
FFE0
7FC0
0200
0200
0600
0E00
0C00
ENDCHAR
STARTCHAR 0160
ENCODING 352
SWIDTH 541 0
DWIDTH 13 0
BBX 11 19 1 0
BITMAP
2080
1B00
0E00
0400
0000
3F80
FFC0
E0C0
C060
C000
C000
7F80
0FC0
0060
0060
C060
C060
FFE0
7FC0
ENDCHAR
STARTCHAR 0161
ENCODING 353
SWIDTH 541 0
DWIDTH 13 0
BBX 11 19 1 0
BITMAP
2080
1B00
0E00
0400
0000
3F80
FFC0
E0C0
C060
C000
C000
7F80
0FC0
0060
0060
C060
C060
FFE0
7FC0
ENDCHAR
STARTCHAR 0178
ENCODING 376
SWIDTH 541 0
DWIDTH 13 0
BBX 12 18 0 0
BITMAP
18C0
18C0
0000
0000
C030
6060
70E0
30C0
1980
1F80
0F00
0600
0600
0600
0600
0600
0600
0600
ENDCHAR
STARTCHAR 017D
ENCODING 381
SWIDTH 541 0
DWIDTH 13 0
BBX 11 19 1 0
BITMAP
2100
3B00
0E00
0400
0000
FFE0
FFE0
00C0
01C0
0380
0300
0600
0C00
1800
3000
6000
6000
FFE0
FFE0
ENDCHAR
STARTCHAR 017E
ENCODING 382
SWIDTH 541 0
DWIDTH 13 0
BBX 11 19 1 0
BITMAP
2100
3B00
0E00
0400
0000
FFE0
FFE0
00C0
01C0
0380
0300
0600
0C00
1800
3000
6000
6000
FFE0
FFE0
ENDCHAR
STARTCHAR 0192
ENCODING 402
SWIDTH 375 0
DWIDTH 9 0
BBX 10 19 -1 -3
BITMAP
03C0
0240
0600
0600
0600
1F80
1F80
0400
0C00
0C00
0C00
0C00
0800
0800
1800
1800
1800
9000
F000
ENDCHAR
STARTCHAR 02C6
ENCODING 710
SWIDTH 500 0
DWIDTH 12 0
BBX 6 4 3 15
BITMAP
30
78
CC
84
ENDCHAR
STARTCHAR 02C7
ENCODING 711
SWIDTH 500 0
DWIDTH 12 0
BBX 6 4 3 15
BITMAP
84
CC
78
30
ENDCHAR
STARTCHAR 02C9
ENCODING 713
SWIDTH 500 0
DWIDTH 12 0
BBX 6 2 3 16
BITMAP
FC
FC
ENDCHAR
STARTCHAR 02D8
ENCODING 728
SWIDTH 500 0
DWIDTH 12 0
BBX 6 3 3 16
BITMAP
84
CC
78
ENDCHAR
STARTCHAR 02D9
ENCODING 729
SWIDTH 500 0
DWIDTH 12 0
BBX 2 2 5 16
BITMAP
C0
C0
ENDCHAR
STARTCHAR 02DA
ENCODING 730
SWIDTH 500 0
DWIDTH 12 0
BBX 4 4 4 15
BITMAP
60
90
90
60
ENDCHAR
STARTCHAR 02DB
ENCODING 731
SWIDTH 500 0
DWIDTH 12 0
BBX 4 5 7 -5
BITMAP
60
80
80
80
70
ENDCHAR
STARTCHAR 02DC
ENCODING 732
SWIDTH 500 0
DWIDTH 12 0
BBX 8 2 2 16
BITMAP
73
CE
ENDCHAR
STARTCHAR 02DD
ENCODING 733
SWIDTH 500 0
DWIDTH 12 0
BBX 7 4 3 16
BITMAP
12
76
CC
08
ENDCHAR
STARTCHAR 03C0
ENCODING 960
SWIDTH 541 0
DWIDTH 13 0
BBX 13 11 0 0
BITMAP
FFF8
3060
3060
3060
3060
3060
3060
3060
3060
3060
3060
ENDCHAR
STARTCHAR 2013
ENCODING 8211
SWIDTH 541 0
DWIDTH 13 0
BBX 11 2 1 6
BITMAP
FFE0
FFE0
ENDCHAR
STARTCHAR 2014
ENCODING 8212
SWIDTH 791 0
DWIDTH 19 0
BBX 19 2 0 6
BITMAP
FFFFE0
FFFFE0
ENDCHAR
STARTCHAR 2018
ENCODING 8216
SWIDTH 208 0
DWIDTH 5 0
BBX 3 5 1 12
BITMAP
E0
C0
E0
E0
E0
ENDCHAR
STARTCHAR 2019
ENCODING 8217
SWIDTH 208 0
DWIDTH 5 0
BBX 3 6 1 10
BITMAP
60
60
60
20
60
C0
ENDCHAR
STARTCHAR 201A
ENCODING 8218
SWIDTH 208 0
DWIDTH 5 0
BBX 3 6 1 -3
BITMAP
60
60
60
20
60
C0
ENDCHAR
STARTCHAR 201C
ENCODING 8220
SWIDTH 375 0
DWIDTH 9 0
BBX 7 5 1 12
BITMAP
EE
C8
EC
EC
EC
ENDCHAR
STARTCHAR 201D
ENCODING 8221
SWIDTH 375 0
DWIDTH 9 0
BBX 7 6 1 10
BITMAP
66
66
66
22
66
CC
ENDCHAR
STARTCHAR 201E
ENCODING 8222
SWIDTH 375 0
DWIDTH 9 0
BBX 7 6 1 -3
BITMAP
66
66
66
22
66
CC
ENDCHAR
STARTCHAR 2020
ENCODING 8224
SWIDTH 458 0
DWIDTH 11 0
BBX 10 18 0 -2
BITMAP
0C00
0C00
0C00
FFC0
FFC0
0C00
0C00
0C00
0C00
0C00
0C00
0C00
0C00
0C00
0C00
0C00
0C00
0C00
ENDCHAR
STARTCHAR 2021
ENCODING 8225
SWIDTH 458 0
DWIDTH 11 0
BBX 10 18 0 -2
BITMAP
0C00
0C00
0C00
FFC0
FFC0
0C00
0C00
0C00
0C00
0C00
0C00
0C00
0C00
FFC0
FFC0
0C00
0C00
0C00
ENDCHAR
STARTCHAR 2022
ENCODING 8226
SWIDTH 666 0
DWIDTH 16 0
BBX 7 7 5 3
BITMAP
38
7C
FE
FE
FE
7C
38
ENDCHAR
STARTCHAR 2026
ENCODING 8230
SWIDTH 625 0
DWIDTH 15 0
BBX 13 3 1 0
BITMAP
C318
C318
C318
ENDCHAR
STARTCHAR 2030
ENCODING 8240
SWIDTH 1291 0
DWIDTH 31 0
BBX 29 14 1 0
BITMAP
7E0C0000
C3080000
C3180000
C3100000
C3300000
C32FC3F0
C3786618
7E586618
00D86618
01986618
01186618
03186618
02186618
060FC3F0
ENDCHAR
STARTCHAR 2039
ENCODING 8249
SWIDTH 291 0
DWIDTH 7 0
BBX 4 10 1 2
BITMAP
30
30
60
60
C0
40
60
20
30
10
ENDCHAR
STARTCHAR 203A
ENCODING 8250
SWIDTH 291 0
DWIDTH 7 0
BBX 4 11 2 2
BITMAP
80
C0
40
60
20
30
60
60
C0
C0
80
ENDCHAR
STARTCHAR 20A3
ENCODING 8355
SWIDTH 666 0
DWIDTH 16 0
BBX 13 14 2 0
BITMAP
FE00
FE00
C000
C000
C000
C000
FBF0
FB18
C318
C300
C300
C300
C300
C300
ENDCHAR
STARTCHAR 20AC
ENCODING 8364
SWIDTH 500 0
DWIDTH 12 0
BBX 9 16 1 -1
BITMAP
0E00
3F00
3000
6000
6000
6000
FE00
6000
6000
FE00
6000
6000
6000
7000
3F80
0F00
ENDCHAR
STARTCHAR 2122
ENCODING 8482
SWIDTH 875 0
DWIDTH 21 0
BBX 18 9 1 7
BITMAP
FE60C0
1061C0
1071C0
105140
105340
105B40
104E40
104E40
104440
ENDCHAR
STARTCHAR 2126
ENCODING 8486
SWIDTH 666 0
DWIDTH 16 0
BBX 14 17 1 0
BITMAP
0FC0
1FE0
3870
7038
6018
C00C
C00C
C00C
C00C
C00C
C00C
6018
6018
3030
1860
FCFC
FCFC
ENDCHAR
STARTCHAR 2202
ENCODING 8706
SWIDTH 500 0
DWIDTH 12 0
BBX 10 16 1 1
BITMAP
7000
3C00
0E00
0300
0180
0080
1E80
71C0
61C0
C0C0
C0C0
C0C0
C0C0
6180
7380
1E00
ENDCHAR
STARTCHAR 2206
ENCODING 8710
SWIDTH 625 0
DWIDTH 15 0
BBX 15 16 0 0
BITMAP
0380
0380
0280
06C0
0440
0C60
0C60
0820
1830
1010
3018
3018
2008
600C
7FFC
FFFE
ENDCHAR
STARTCHAR 220F
ENCODING 8719
SWIDTH 666 0
DWIDTH 16 0
BBX 14 24 1 -6
BITMAP
FFFC
FFFC
6018
6018
6018
6018
6018
6018
6018
6018
6018
6018
6018
6018
6018
6018
6018
6018
6018
6018
6018
6018
F87C
F87C
ENDCHAR
STARTCHAR 2211
ENCODING 8721
SWIDTH 666 0
DWIDTH 16 0
BBX 14 24 1 -6
BITMAP
FFF8
FFF8
C018
6018
6018
3000
1800
1800
0C00
0C00
0600
0300
0600
0600
0C00
1C00
1800
3000
3000
600C
600C
C01C
FFFC
FFFC
ENDCHAR
STARTCHAR 2212
ENCODING 8722
SWIDTH 541 0
DWIDTH 13 0
BBX 11 2 1 5
BITMAP
FFE0
FFE0
ENDCHAR
STARTCHAR 2215
ENCODING 8725
SWIDTH 166 0
DWIDTH 4 0
BBX 8 14 -2 0
BITMAP
01
03
02
06
0C
08
18
10
30
20
60
40
C0
80
ENDCHAR
STARTCHAR 2219
ENCODING 8729
SWIDTH 208 0
DWIDTH 5 0
BBX 2 3 1 5
BITMAP
C0
C0
C0
ENDCHAR
STARTCHAR 221A
ENCODING 8730
SWIDTH 666 0
DWIDTH 16 0
BBX 16 20 0 0
BITMAP
003F
003F
0060
0060
0060
00C0
00C0
00C0
0080
0180
0180
E180
E300
3300
3300
1200
1E00
1E00
0C00
0C00
ENDCHAR
STARTCHAR 221E
ENCODING 8734
SWIDTH 666 0
DWIDTH 16 0
BBX 16 7 0 3
BITMAP
3C3C
4662
8181
8181
8181
4662
3C3C
ENDCHAR
STARTCHAR 222B
ENCODING 8747
SWIDTH 500 0
DWIDTH 12 0
BBX 8 24 2 -6
BITMAP
0F
1E
18
18
18
18
18
18
18
18
18
18
18
18
18
18
18
18
18
18
18
18
78
F0
ENDCHAR
STARTCHAR 2248
ENCODING 8776
SWIDTH 500 0
DWIDTH 12 0
BBX 11 8 1 3
BITMAP
7000
FC60
8FC0
8380
0000
7860
FFC0
8780
ENDCHAR
STARTCHAR 2260
ENCODING 8800
SWIDTH 541 0
DWIDTH 13 0
BBX 11 9 1 2
BITMAP
0080
0180
FFE0
FFE0
0400
FFE0
FFE0
3000
2000
ENDCHAR
STARTCHAR 2264
ENCODING 8804
SWIDTH 500 0
DWIDTH 12 0
BBX 10 13 1 1
BITMAP
0040
01C0
0780
3C00
F000
E000
7800
1F00
03C0
00C0
0000
FFC0
FFC0
ENDCHAR
STARTCHAR 2265
ENCODING 8805
SWIDTH 500 0
DWIDTH 12 0
BBX 10 13 1 1
BITMAP
8000
E000
7800
0F00
03C0
01C0
0780
3E00
F000
C000
0000
FFC0
FFC0
ENDCHAR
STARTCHAR 25CA
ENCODING 9674
SWIDTH 666 0
DWIDTH 16 0
BBX 12 16 2 0
BITMAP
0600
0F00
0900
1980
30C0
2040
4020
C030
C030
4020
2040
30C0
1980
0900
0F00
0600
ENDCHAR
STARTCHAR F000
ENCODING 61440
SWIDTH 666 0
DWIDTH 16 0
BBX 14 18 1 -1
BITMAP
0020
00C0
01C0
0180
3C70
7FFC
7FF8
FFF8
FFF0
FFF0
FFF0
FFF8
FFFC
7FFC
7FFC
3FF8
3FF8
1C70
ENDCHAR
STARTCHAR F001
ENCODING 61441
SWIDTH 666 0
DWIDTH 16 0
BBX 13 14 2 0
BITMAP
FF98
FF98
C018
C018
C018
C018
FF18
FF18
C018
C018
C018
C018
C018
C018
ENDCHAR
STARTCHAR F002
ENCODING 61442
SWIDTH 916 0
DWIDTH 22 0
BBX 20 14 2 0
BITMAP
FF9800
FF9800
C01800
C01800
C01800
C01800
FF1800
FF1800
C01800
C01800
C01800
C01800
C01FF0
C01FF0
ENDCHAR
ENDFONT
